<svg width="730" height="572" viewBox="0 0 730 572" fill="none" xmlns="http://www.w3.org/2000/svg">
    <g clip-path="url(#clip0_1_3)">
        <g opacity="0.5">
            <path opacity="0.5" d="M691.498 142.435H591.526V105.236C591.526 94.9027 587.304 84.9925 579.79 77.6857C572.276 70.3788 562.085 66.2739 551.459 66.2739H93.7185C84.078 66.2739 74.8323 69.9979 68.0155 76.6268C61.1986 83.2556 57.369 92.2463 57.369 101.621V142.457H42.3174C31.1046 142.453 20.349 146.778 12.414 154.482C4.47904 162.186 0.0139629 172.638 0 183.541V367.96C0.00812974 378.331 4.04472 388.316 11.3014 395.915C18.5582 403.514 28.4993 408.168 39.134 408.943V450.656H81.8654V409.067H135.675V451.008H178.406V409.067H562.973V451.008H605.704V409.067H641.316V450.62H684.093V409.067H691.792C696.809 409.068 701.777 408.108 706.413 406.241C711.048 404.375 715.26 401.639 718.809 398.189C722.357 394.74 725.171 390.644 727.091 386.137C729.012 381.63 730 376.799 730 371.92V179.882C730.001 174.965 729.006 170.095 727.071 165.552C725.137 161.009 722.301 156.881 718.726 153.403C715.15 149.926 710.906 147.167 706.234 145.285C701.562 143.403 696.555 142.435 691.498 142.435ZM584 305.185V336.346H424.694C426.42 333.342 427.324 329.958 427.321 326.517V305.185H584Z" fill="url(#paint0_linear_1_3)"/>
        </g>
        <path d="M92.409 393.479H51.2656V443.492H92.409V393.479Z" fill="#6C63FF"/>
        <path d="M596.824 393.852H555.681V443.865H596.824V393.852Z" fill="#6C63FF"/>
        <path d="M672.255 393.479H631.111V443.492H672.255V393.479Z" fill="#6C63FF"/>
        <path d="M185.367 393.852H144.224V443.865H185.367V393.852Z" fill="#6C63FF"/>
        <path opacity="0.3" d="M92.409 393.479H51.2656V443.492H92.409V393.479Z" fill="black"/>
        <path opacity="0.3" d="M596.824 393.852H555.681V443.865H596.824V393.852Z" fill="black"/>
        <path opacity="0.3" d="M672.255 393.479H631.111V443.492H672.255V393.479Z" fill="black"/>
        <path opacity="0.3" d="M185.367 393.852H144.224V443.865H185.367V393.852Z" fill="black"/>
        <path d="M575.872 146.745H679.382C689.214 146.745 698.643 150.543 705.595 157.304C712.548 164.064 716.454 173.234 716.454 182.795V367.719C716.454 377.204 712.579 386.301 705.681 393.008C698.784 399.715 689.429 403.483 679.675 403.483H575.872V146.745Z" fill="#6C63FF"/>
        <path opacity="0.3" d="M575.872 146.745H679.382C689.214 146.745 698.643 150.543 705.595 157.304C712.548 164.064 716.454 173.234 716.454 182.795V367.719C716.454 377.204 712.579 386.301 705.681 393.008C698.784 399.715 689.429 403.483 679.675 403.483H575.872V146.745Z" fill="black"/>
        <path d="M103.788 73.3945H301.949V303.458H68.7856V107.424C68.7876 98.3983 72.4762 89.7428 79.0402 83.3612C85.6042 76.9795 94.5061 73.3945 103.788 73.3945Z" fill="#6C63FF"/>
        <path opacity="0.3" d="M104.917 73.3945H301.949V303.458H68.7856V108.522C68.7856 103.908 69.7202 99.3399 71.5361 95.0776C73.3519 90.8153 76.0134 86.9425 79.3686 83.6805C82.7238 80.4185 86.707 77.8312 91.0906 76.0663C95.4742 74.3014 100.172 73.3935 104.917 73.3945Z" fill="black"/>
        <path d="M157.439 73.3945H349.572V303.458H116.409V113.286C116.409 102.706 120.731 92.5596 128.424 85.0785C136.117 77.5974 146.552 73.3945 157.432 73.3945H157.439Z" fill="#6C63FF"/>
        <path d="M348.443 73.3945H544.527C554.761 73.3945 564.575 77.3476 571.811 84.384C579.047 91.4205 583.112 100.964 583.112 110.915V303.458H348.443V73.3945Z" fill="#6C63FF"/>
        <path d="M641.023 146.745H679.404C689.232 146.751 698.656 150.552 705.603 157.312C712.551 164.072 716.454 173.238 716.454 182.795V367.719C716.454 377.204 712.579 386.301 705.681 393.008C698.784 399.715 689.429 403.483 679.675 403.483H641.023V146.745Z" fill="#6C63FF"/>
        <path d="M641.015 333.462H167.84V403.483H641.015V333.462Z" fill="#6C63FF"/>
        <path d="M276.565 155.771L224.863 170.426C202.098 176.878 189.022 200.054 195.658 222.191L212.785 279.332C219.42 301.469 243.254 314.184 266.019 307.732L317.722 293.078C340.486 286.625 353.562 263.449 346.927 241.312L329.799 184.171C323.164 162.034 299.33 149.319 276.565 155.771Z" fill="url(#paint1_linear_1_3)"/>
        <path d="M273.717 162.597L225.504 176.262C204.275 182.279 192.082 203.891 198.27 224.534L214.241 277.819C220.429 298.462 242.654 310.319 263.882 304.302L312.095 290.636C333.324 284.619 345.517 263.007 339.329 242.364L323.358 189.08C317.171 168.437 294.945 156.58 273.717 162.597Z" fill="#F55F44"/>
        <path opacity="0.1" d="M273.717 162.597L225.504 176.262C204.275 182.279 192.082 203.891 198.27 224.534L214.241 277.819C220.429 298.462 242.654 310.319 263.882 304.302L312.095 290.636C333.324 284.619 345.517 263.007 339.329 242.364L323.358 189.08C317.171 168.437 294.945 156.58 273.717 162.597Z" fill="black"/>
        <path d="M276.205 160.897L227.992 174.562C206.763 180.579 194.57 202.191 200.758 222.834L216.729 276.118C222.916 296.762 245.142 308.618 266.37 302.601L314.583 288.936C335.812 282.919 348.005 261.307 341.817 240.664L325.846 187.38C319.658 166.737 297.433 154.88 276.205 160.897Z" fill="#F55F44"/>
        <path d="M265.893 206.899C270.54 203.721 271.658 197.48 268.389 192.961C265.12 188.442 258.703 187.355 254.056 190.534C249.409 193.712 248.291 199.952 251.559 204.472C254.828 208.991 261.245 210.078 265.893 206.899Z" fill="url(#paint2_linear_1_3)"/>
        <path d="M315.113 234.378C319.76 231.199 320.878 224.959 317.609 220.44C314.34 215.92 307.923 214.834 303.276 218.012C298.628 221.191 297.511 227.431 300.779 231.95C304.048 236.469 310.465 237.556 315.113 234.378Z" fill="url(#paint3_linear_1_3)"/>
        <path d="M238.769 262.125C243.416 258.947 244.534 252.707 241.265 248.187C237.996 243.668 231.579 242.581 226.932 245.76C222.284 248.938 221.167 255.179 224.435 259.698C227.704 264.217 234.121 265.304 238.769 262.125Z" fill="url(#paint4_linear_1_3)"/>
        <path d="M285.179 291.528C289.826 288.349 290.944 282.109 287.675 277.59C284.406 273.071 277.989 271.984 273.342 275.162C268.694 278.341 267.577 284.581 270.845 289.1C274.114 293.62 280.531 294.706 285.179 291.528Z" fill="url(#paint5_linear_1_3)"/>
        <path d="M263.919 204.169C267.016 202.051 267.76 197.893 265.582 194.881C263.404 191.869 259.127 191.145 256.03 193.263C252.933 195.381 252.188 199.54 254.366 202.552C256.545 205.563 260.821 206.288 263.919 204.169Z" fill="#F99F8F"/>
        <path d="M313.138 231.648C316.236 229.53 316.98 225.371 314.802 222.359C312.624 219.348 308.347 218.623 305.25 220.742C302.153 222.86 301.408 227.019 303.586 230.03C305.765 233.042 310.041 233.766 313.138 231.648Z" fill="#F99F8F"/>
        <path d="M236.794 259.396C239.891 257.278 240.636 253.119 238.458 250.107C236.28 247.095 232.003 246.371 228.906 248.489C225.809 250.608 225.064 254.766 227.242 257.778C229.421 260.79 233.697 261.514 236.794 259.396Z" fill="#F99F8F"/>
        <path d="M283.204 288.798C286.301 286.68 287.046 282.521 284.868 279.51C282.69 276.498 278.413 275.774 275.316 277.892C272.219 280.01 271.474 284.169 273.652 287.18C275.831 290.192 280.107 290.916 283.204 288.798Z" fill="#F99F8F"/>
        <path d="M54.2834 146.745H205.551V403.483H54.2834C43.4806 403.483 33.1201 399.311 25.4806 391.883C17.8412 384.456 13.5484 374.382 13.5464 363.877V186.359C13.5464 175.852 17.8383 165.777 25.478 158.348C33.1177 150.919 43.4793 146.745 54.2834 146.745Z" fill="#6C63FF"/>
        <path opacity="0.3" d="M54.5694 146.745H167.599C172.586 146.745 177.525 147.701 182.133 149.558C186.74 151.415 190.926 154.136 194.451 157.567C197.977 160.998 200.772 165.071 202.678 169.552C204.584 174.034 205.563 178.838 205.559 183.688V366.57C205.559 376.36 201.56 385.749 194.441 392.672C187.322 399.594 177.667 403.483 167.599 403.483H54.5694C43.6894 403.483 33.255 399.28 25.5617 391.799C17.8684 384.318 13.5464 374.171 13.5464 363.592V186.615C13.5524 176.039 17.8771 165.898 25.5697 158.421C33.2624 150.945 43.6933 146.745 54.5694 146.745Z" fill="black"/>
        <path opacity="0.1" d="M130.504 146.745H196.573C199.966 146.745 203.22 148.056 205.62 150.389C208.019 152.722 209.367 155.887 209.367 159.186V391.042C209.367 394.342 208.019 397.506 205.62 399.839C203.22 402.172 199.966 403.483 196.573 403.483H130.504V146.745Z" fill="black"/>
        <path d="M126.696 146.745H192.765C196.158 146.745 199.412 148.056 201.812 150.389C204.211 152.722 205.559 155.887 205.559 159.186V391.042C205.559 394.342 204.211 397.506 201.812 399.839C199.412 402.172 196.158 403.483 192.765 403.483H126.696V146.745Z" fill="#6C63FF"/>
        <path d="M425.003 280.12H188.415V343.474H425.003V280.12Z" fill="#6C63FF"/>
        <path d="M661.975 280.486H425.387V343.84H661.975V280.486Z" fill="#6C63FF"/>
        <path opacity="0.15" d="M404.984 280.12H208.434C197.378 280.12 188.415 288.835 188.415 299.586V324.007C188.415 334.758 197.378 343.474 208.434 343.474H404.984C416.04 343.474 425.003 334.758 425.003 324.007V299.586C425.003 288.835 416.04 280.12 404.984 280.12Z" fill="white"/>
        <path d="M452.623 163.599C460.195 163.599 466.335 157.629 466.335 150.265C466.335 142.901 460.195 136.931 452.623 136.931C445.05 136.931 438.911 142.901 438.911 150.265C438.911 157.629 445.05 163.599 452.623 163.599Z" fill="#6C63FF"/>
        <path opacity="0.3" d="M452.623 163.599C460.195 163.599 466.335 157.629 466.335 150.265C466.335 142.901 460.195 136.931 452.623 136.931C445.05 136.931 438.911 142.901 438.911 150.265C438.911 157.629 445.05 163.599 452.623 163.599Z" fill="black"/>
        <path d="M240.042 163.599C247.615 163.599 253.754 157.629 253.754 150.265C253.754 142.901 247.615 136.931 240.042 136.931C232.469 136.931 226.33 142.901 226.33 150.265C226.33 157.629 232.469 163.599 240.042 163.599Z" fill="#6C63FF"/>
        <path opacity="0.3" d="M240.042 163.599C247.615 163.599 253.754 157.629 253.754 150.265C253.754 142.901 247.615 136.931 240.042 136.931C232.469 136.931 226.33 142.901 226.33 150.265C226.33 157.629 232.469 163.599 240.042 163.599Z" fill="black"/>
        <path d="M233.179 79.8711C235.074 79.8711 236.61 77.6333 236.61 74.8728C236.61 72.1123 235.074 69.8744 233.179 69.8744C231.283 69.8744 229.747 72.1123 229.747 74.8728C229.747 77.6333 231.283 79.8711 233.179 79.8711Z" fill="#FDA57D"/>
        <path opacity="0.15" d="M641.956 280.486H445.405C434.349 280.486 425.387 289.201 425.387 299.952V324.373C425.387 335.124 434.349 343.84 445.405 343.84H641.956C653.012 343.84 661.975 335.124 661.975 324.373V299.952C661.975 289.201 653.012 280.486 641.956 280.486Z" fill="white"/>
        <g opacity="0.5">
            <path opacity="0.5" d="M506.063 152.226C504.49 143.818 502.88 135.314 499.29 127.491C495.358 118.897 489.2 111.443 481.416 105.858C480.26 105.009 478.828 104.593 477.382 104.687C475.125 104.878 474.432 106.224 474.079 107.615C474.033 107.783 473.996 107.944 473.966 108.112C473.078 112.379 473.672 116.594 474.959 120.751C476.562 125.939 479.249 130.996 481.484 136.017C485.511 145.012 488.18 154.527 489.409 164.265C489.574 165.553 489.702 166.878 489.732 168.202C489.754 168.991 489.734 169.78 489.672 170.566C489.571 172.108 489.21 173.624 488.603 175.052C488.498 175.286 488.385 175.53 488.265 175.784C488.144 176.038 488.014 176.262 487.873 176.457C486.504 178.653 484.366 180.219 482.274 181.763C480.182 183.307 477.811 184.954 475.313 185.788H475.396C474.233 186.196 473.004 186.392 471.768 186.366C467.907 186.249 463.791 183.226 459.908 183.936L459.471 184.032C455.497 185.078 452.449 191.152 452.419 195.009C452.419 195.316 452.419 195.614 452.419 195.902C452.419 196.004 452.419 196.107 452.457 196.209C452.495 196.311 452.502 196.597 452.532 196.78C452.562 196.963 452.577 197.007 452.607 197.116C452.638 197.226 452.675 197.446 452.72 197.607C452.766 197.768 452.788 197.834 452.826 197.943C452.863 198.053 452.924 198.243 452.976 198.39C453.029 198.536 453.067 198.609 453.112 198.712C453.157 198.814 453.232 198.99 453.3 199.122L453.465 199.429C453.541 199.553 453.608 199.685 453.691 199.81L453.887 200.102L454.143 200.454L454.361 200.724L454.655 201.046L454.895 201.295L455.219 201.595L455.482 201.822L455.836 202.1L456.115 202.312L456.498 202.569L456.784 202.759L457.206 203L457.499 203.161L457.973 203.388L458.252 203.52C458.478 203.622 458.711 203.718 458.944 203.805L459.283 203.93L459.825 204.12L460.216 204.237L460.66 204.369L461.097 204.479L461.518 204.581L461.985 204.676L462.391 204.757L462.88 204.837L463.272 204.896L463.776 204.962L464.152 205.006L464.679 205.049H465.048H465.589H465.936H466.5H467.682H468.299H468.517L469.179 204.998H469.307C471.186 204.839 473.035 204.443 474.809 203.82C480.43 201.749 485.202 197.965 489.619 193.992C498.379 186.125 506.658 176.362 507.358 164.785C507.628 160.606 506.838 156.391 506.063 152.226Z" fill="url(#paint6_linear_1_3)"/>
        </g>
        <path opacity="0.1" d="M469.014 149.446H398.068V169.417H469.014V149.446Z" fill="black"/>
        <path d="M469.014 149.446H398.068V167.602H469.014V149.446Z" fill="#6C63FF"/>
        <path d="M439.144 151.868C445.329 151.868 450.342 146.992 450.342 140.978C450.342 134.964 445.329 130.089 439.144 130.089C432.959 130.089 427.946 134.964 427.946 140.978C427.946 146.992 432.959 151.868 439.144 151.868Z" fill="#6C63FF"/>
        <path d="M418.027 157.737L417.891 157.605C418.145 157.418 418.351 157.177 418.493 156.899C418.635 156.622 418.709 156.316 418.709 156.006C418.709 155.696 418.635 155.391 418.493 155.113C418.351 154.836 418.145 154.594 417.891 154.407L418.012 154.261C418.283 154.466 418.504 154.729 418.655 155.03C418.806 155.33 418.885 155.661 418.885 155.995C418.885 156.33 418.806 156.66 418.655 156.961C418.504 157.262 418.283 157.525 418.012 157.73L418.027 157.737Z" fill="#4D8AF0"/>
        <path opacity="0.1" d="M418.027 157.737L417.891 157.605C418.145 157.418 418.351 157.177 418.493 156.899C418.635 156.622 418.709 156.316 418.709 156.006C418.709 155.696 418.635 155.391 418.493 155.113C418.351 154.836 418.145 154.594 417.891 154.407L418.012 154.261C418.283 154.466 418.504 154.729 418.655 155.03C418.806 155.33 418.885 155.661 418.885 155.995C418.885 156.33 418.806 156.66 418.655 156.961C418.504 157.262 418.283 157.525 418.012 157.73L418.027 157.737Z" fill="black"/>
        <path d="M417.891 157.737C417.619 157.532 417.399 157.269 417.248 156.968C417.096 156.668 417.018 156.337 417.018 156.003C417.018 155.668 417.096 155.338 417.248 155.037C417.399 154.736 417.619 154.473 417.891 154.268L418.012 154.415C417.757 154.602 417.551 154.843 417.409 155.121C417.268 155.398 417.194 155.704 417.194 156.014C417.194 156.324 417.268 156.629 417.409 156.907C417.551 157.184 417.757 157.426 418.012 157.613L417.891 157.737Z" fill="#4D8AF0"/>
        <path d="M475.26 216.327C480.4 214.431 484.758 210.97 488.807 207.34C496.814 200.154 504.37 191.24 505.017 180.65C505.25 176.786 504.535 172.937 503.82 169.124C502.383 161.44 500.916 153.668 497.657 146.526C494.064 138.676 488.436 131.867 481.326 126.766C480.267 125.988 478.955 125.608 477.631 125.698C475.373 125.895 474.801 127.403 474.5 128.845C472.671 137.627 477.691 146.145 481.364 154.341C485.043 162.561 487.481 171.255 488.603 180.153C489.077 183.929 489.251 188.013 487.204 191.262C485.954 193.252 483.998 194.701 482.086 196.107C479.226 198.207 476.065 200.41 472.483 200.307C468.901 200.205 464.897 197.212 461.194 198.178C457.492 199.144 454.775 204.684 454.752 208.233C454.707 217.849 468.382 218.859 475.26 216.327Z" fill="#FFD180"/>
        <g opacity="0.1">
            <path opacity="0.1" d="M487.188 191.262C485.939 193.252 483.982 194.701 482.071 196.107C480.158 197.642 478.01 198.876 475.704 199.766C478.955 199.553 481.868 197.57 484.509 195.602C486.421 194.197 488.378 192.74 489.627 190.757C491.666 187.515 491.501 183.439 491.027 179.648C489.904 170.75 487.466 162.056 483.787 153.836C480.114 145.633 475.087 137.107 476.923 128.34C476.974 127.821 477.134 127.319 477.393 126.863C477.652 126.407 478.004 126.008 478.428 125.691C478.15 125.668 477.871 125.668 477.593 125.691C475.335 125.888 474.763 127.396 474.462 128.837C472.634 137.619 477.653 146.138 481.326 154.334C485.005 162.554 487.444 171.248 488.566 180.145C489.062 183.929 489.235 188.013 487.188 191.262Z" fill="black"/>
            <path opacity="0.1" d="M457.206 207.75C457.206 204.471 459.606 199.488 462.835 197.995C462.285 197.981 461.735 198.043 461.202 198.178C457.567 199.136 454.782 204.683 454.76 208.233C454.715 217.205 466.598 218.669 473.785 216.788C466.643 217.798 457.161 215.741 457.206 207.75Z" fill="black"/>
        </g>
        <g opacity="0.5">
            <path opacity="0.5" d="M404.789 107.717C404.789 107.717 425.289 103.729 435.539 107.717C435.539 107.717 441.688 93.7611 447.836 93.7611C453.985 93.7611 456.032 115.716 456.032 115.716L464.227 147.609C464.227 147.609 503.173 215.383 464.227 251.257C425.281 287.131 363.796 247.246 363.796 221.332C363.796 195.419 376.093 141.608 376.093 141.608C376.093 141.608 388.39 97.7569 392.492 93.7685C396.593 89.78 404.789 107.717 404.789 107.717Z" fill="url(#paint7_linear_1_3)"/>
        </g>
        <path d="M405.481 110.491C405.481 110.491 425.184 106.656 435.035 110.491C435.035 110.491 440.943 97.0763 446.858 97.0763C452.773 97.0763 454.737 118.153 454.737 118.153L462.617 148.809C462.617 148.809 500.058 213.941 462.617 248.447C425.176 282.952 366.061 244.612 366.061 219.708C366.061 194.804 377.884 143.064 377.884 143.064C377.884 143.064 389.707 100.911 393.651 97.0763C397.594 93.2415 405.481 110.491 405.481 110.491Z" fill="#FFD180"/>
        <g opacity="0.1">
            <path opacity="0.1" d="M476.381 184.624C473.359 172.17 468.726 160.138 462.594 148.816L463.836 153.661C469.175 163.503 473.382 173.886 476.381 184.624Z" fill="white"/>
            <path opacity="0.1" d="M369.606 214.548C369.606 189.667 379.141 147.909 379.141 147.909C379.141 147.909 390.964 105.756 394.907 101.921C398.851 98.0862 406.73 115.335 406.73 115.335C406.73 115.335 426.433 111.501 436.284 115.335C436.284 115.335 442.199 101.921 448.107 101.921C450.365 101.921 452.103 105.097 453.322 108.983C452.118 103.297 450.071 97.0763 446.865 97.0763C440.958 97.0763 435.042 110.491 435.042 110.491C425.191 106.656 405.489 110.491 405.489 110.491C405.489 110.491 397.609 93.2489 393.666 97.0763C389.722 100.904 377.899 143.064 377.899 143.064C377.899 143.064 368.364 184.778 368.364 209.704C368.356 211.958 369.606 215.266 369.606 214.548Z" fill="white"/>
        </g>
        <path d="M443.908 147.857C446.086 147.857 447.851 146.141 447.851 144.023C447.851 141.905 446.086 140.188 443.908 140.188C441.73 140.188 439.964 141.905 439.964 144.023C439.964 146.141 441.73 147.857 443.908 147.857Z" fill="#58555D"/>
        <path d="M398.588 147.857C400.765 147.857 402.531 146.141 402.531 144.023C402.531 141.905 400.765 140.188 398.588 140.188C396.41 140.188 394.644 141.905 394.644 144.023C394.644 146.141 396.41 147.857 398.588 147.857Z" fill="#58555D"/>
        <path d="M422.233 151.692C425.496 151.692 428.141 149.975 428.141 147.857C428.141 145.74 425.496 144.023 422.233 144.023C418.971 144.023 416.326 145.74 416.326 147.857C416.326 149.975 418.971 151.692 422.233 151.692Z" fill="#58555D"/>
        <path d="M473.252 139.224L455.517 143.053L455.945 144.925L473.68 141.095L473.252 139.224Z" fill="#FFD180"/>
        <path d="M475.25 146.891L455.544 150.709L455.929 152.59L475.635 148.771L475.25 146.891Z" fill="#FFD180"/>
        <path d="M365.448 133.547L364.716 135.327L384.421 142.991L385.153 141.211L365.448 133.547Z" fill="#FFD180"/>
        <path d="M359.352 143.093L359.052 144.988L384.669 148.822L384.969 146.927L359.352 143.093Z" fill="#FFD180"/>
        <path opacity="0.1" d="M417.319 172.374C412.161 172.378 407.012 171.952 401.929 171.1C392.156 169.463 382.752 166.177 374.144 161.389L374.829 158.293C383.534 162.878 392.933 166.089 402.674 167.807C416.86 170.171 441.259 169.461 466.056 156.156L467.712 159.084C449.71 168.758 430.76 172.374 417.319 172.374Z" fill="black"/>
        <path d="M466.056 155.446C441.221 168.751 416.853 169.461 402.674 167.097C392.933 165.379 383.534 162.168 374.829 157.583L373.007 160.408C382.03 165.23 391.797 168.594 401.929 170.368C407.014 171.223 412.166 171.652 417.327 171.649C430.768 171.649 449.688 168.041 467.749 158.381L466.056 155.446ZM417.959 171.386C417.883 171.386 417.809 171.364 417.746 171.323C417.683 171.282 417.633 171.223 417.604 171.155C417.575 171.087 417.568 171.012 417.582 170.94C417.597 170.867 417.634 170.801 417.688 170.748C417.741 170.696 417.81 170.661 417.884 170.646C417.958 170.632 418.036 170.639 418.106 170.668C418.176 170.696 418.236 170.744 418.278 170.805C418.32 170.866 418.343 170.939 418.343 171.012C418.341 171.11 418.299 171.203 418.228 171.272C418.156 171.34 418.059 171.378 417.959 171.378V171.386Z" fill="#F55F44"/>
        <path opacity="0.1" d="M414.143 176.567C414.143 177.549 414.544 178.491 415.259 179.185C415.973 179.88 416.941 180.27 417.951 180.27C418.961 180.27 419.93 179.88 420.644 179.185C421.358 178.491 421.759 177.549 421.759 176.567C421.759 175.585 421.358 174.643 420.644 173.948C419.93 173.254 418.961 172.864 417.951 172.864C416.941 172.864 415.973 173.254 415.259 173.948C414.544 174.643 414.143 175.585 414.143 176.567ZM417.951 174.715C417.826 174.715 417.704 174.679 417.6 174.612C417.496 174.544 417.415 174.448 417.367 174.336C417.319 174.224 417.307 174.1 417.331 173.981C417.356 173.861 417.416 173.752 417.504 173.666C417.593 173.58 417.705 173.521 417.828 173.498C417.951 173.474 418.078 173.486 418.193 173.533C418.309 173.579 418.407 173.658 418.477 173.759C418.546 173.86 418.583 173.979 418.583 174.101C418.584 174.262 418.518 174.418 418.401 174.533C418.284 174.648 418.125 174.713 417.959 174.715H417.951Z" fill="url(#paint8_linear_1_3)"/>
        <path d="M414.527 176.567C414.527 177.452 414.889 178.301 415.532 178.927C416.176 179.552 417.049 179.904 417.959 179.904C418.869 179.904 419.742 179.552 420.386 178.927C421.029 178.301 421.391 177.452 421.391 176.567C421.391 175.682 421.029 174.833 420.386 174.207C419.742 173.581 418.869 173.23 417.959 173.23C417.049 173.23 416.176 173.581 415.532 174.207C414.889 174.833 414.527 175.682 414.527 176.567ZM417.959 174.898C417.846 174.898 417.735 174.866 417.641 174.805C417.547 174.743 417.474 174.657 417.43 174.555C417.387 174.453 417.376 174.342 417.398 174.234C417.42 174.126 417.474 174.027 417.554 173.949C417.634 173.871 417.736 173.818 417.847 173.797C417.958 173.775 418.073 173.786 418.178 173.828C418.282 173.87 418.372 173.942 418.434 174.033C418.497 174.125 418.531 174.232 418.531 174.342C418.531 174.49 418.471 174.631 418.363 174.735C418.256 174.84 418.111 174.898 417.959 174.898Z" fill="#4D8AF0"/>
        <path d="M461.006 156.559C408.559 186.564 378.336 158.754 378.336 158.754L461.006 156.559Z" fill="#FFD180"/>
        <path d="M604.884 303.97C601.671 295.108 567.255 320.07 567.255 320.07L559.3 319.609L543.993 305.821L554.68 295.43L464.942 220.601C462.547 218.605 459.749 217.119 456.728 216.237C453.707 215.355 450.529 215.096 447.4 215.478L372.797 224.523C372.473 220.367 369.839 215.427 366.114 210.384C358.46 198.178 342.347 184.397 336.402 179.502L327.281 119.873L335.01 108.595C333.579 108.215 332.172 107.755 330.795 107.219L332.428 104.834L331.826 104.673L332.579 103.809H332.489L351.74 82.1471C353.169 80.5395 353.902 78.4555 353.784 76.3332C353.666 74.2109 352.707 72.2158 351.107 70.7673L308.022 38.933C309.329 35.9008 309.955 32.6324 309.859 29.3461C310.197 23.0231 307.285 16.6051 297.524 11.8555C291.484 9.05526 285.158 6.88194 278.649 5.37158C267.925 2.68814 256.656 2.84988 246.018 5.83994C245.844 5.62771 245.656 5.41549 245.461 5.19594C232.2 -9.54297 214.808 11.636 214.131 12.5142L146.158 86.0331C144.31 88.887 143.634 92.3127 144.264 95.6293C144.894 98.9458 146.785 101.91 149.56 103.933L185.54 130.169L185.428 130.396L187.459 131.86C185.954 134.787 183.855 136.763 181.108 137.063L186.617 139.742C185.746 140.334 184.737 140.704 183.682 140.817L208.908 153.083C208.908 165.831 210.263 224.194 231.576 252.845C233.759 256.371 236.358 259.637 239.32 262.578C239.32 262.578 241.133 261.619 244.445 260.068L248.253 267.481C252.438 275.62 259.15 282.272 267.44 286.495C275.729 290.718 285.175 292.297 294.438 291.009L412.856 274.558L411.6 278.217L412.277 278.122L373.895 390.091L380.232 392.147L380.112 392.367L381.007 392.74L373.022 407.376L347.894 426.17C347.894 426.17 421.338 461.875 429.067 456.24C436.796 450.605 401.974 426.17 401.974 426.17L400.04 418.654L408.491 401.302L415.573 403.6L472.483 292.919L474.417 289.158L512.934 335.995L523.794 325.442L524.968 326.598L525.066 326.503L540.117 341.315L551.022 370.258C551.022 370.258 608.083 312.832 604.884 303.97ZM306.111 88.7408L305.358 87.8919C300.768 93.4757 292.647 100.23 283.594 104.804V98.6497L284.023 98.2838V95.6053C289.745 90.483 293.883 83.9087 295.971 76.6228C298.059 69.3369 298.013 61.629 295.838 54.3671L320.839 73.0359L306.111 88.7408ZM221.258 19.3421L220.656 18.7566L221.265 19.3421H221.258ZM201.277 58.48C201.111 60.4315 201.043 62.3952 201.074 64.3711C201.03 67.2402 201.193 70.1087 201.563 72.9554C202.85 82.9009 206.515 91.0314 214.063 94.9101C220.641 98.2765 224.968 98.0935 227.722 95.7956L228.023 96.0591C228.255 99.9489 229.294 103.753 231.079 107.241C216.988 104.38 203.532 99.1101 191.335 91.6754C191.335 91.6754 191.38 92.1731 191.433 93.0659L181.093 83.0107L201.277 58.48Z" fill="url(#paint9_linear_1_3)"/>
        <path d="M389.963 371.232L373.068 402.268L399.348 413.216L416.243 378.535L389.963 371.232Z" fill="#FDA57D"/>
        <path d="M399.348 413.216L401.222 420.535C401.222 420.535 435.012 444.268 427.502 449.742C419.991 455.216 348.654 420.535 348.654 420.535L373.06 402.276L399.348 413.216Z" fill="#333333"/>
        <path opacity="0.1" d="M414.444 381.755L387.856 373.142L379.946 387.661L406.226 398.617L414.444 381.755Z" fill="black"/>
        <path d="M510.014 313.096L535.391 338.08L554.017 316.982L525.058 290.907L510.014 313.096Z" fill="#FDA57D"/>
        <path opacity="0.1" d="M526.104 292.122L511.06 314.318L520.678 323.78L540.192 304.804L526.104 292.122Z" fill="black"/>
        <path d="M554.017 316.974L561.746 317.421C561.746 317.421 595.161 293.19 598.284 301.796C601.407 310.403 545.987 366.197 545.987 366.197L535.398 338.08L554.017 316.974Z" fill="#333333"/>
        <path d="M313.411 130.169L352.409 86.26C353.799 84.6977 354.511 82.6723 354.396 80.6099C354.281 78.5476 353.347 76.609 351.792 75.2021L266.932 12.6605L256.629 28.2923L322.397 77.522L294.476 107.293L313.411 130.169Z" fill="#FDA57D"/>
        <path opacity="0.1" d="M308.933 91.9316L295.289 106.48L314.246 129.386L333.813 107.388C324.268 104.449 315.687 99.1185 308.933 91.9316Z" fill="black"/>
        <path d="M200.186 139.698L156.032 107.497C153.337 105.532 151.501 102.652 150.889 99.4306C150.277 96.2092 150.934 92.8818 152.728 90.1093L218.797 18.6176L232.343 31.7904L186.639 87.1528L213.657 113.425L200.186 139.698Z" fill="#FDA57D"/>
        <path opacity="0.1" d="M190.846 133.214L198.071 138.483L211.617 112.21L194.609 95.7224C194.97 101.314 195.986 123.041 190.846 133.214Z" fill="black"/>
        <path d="M414.437 267.218L373.903 385.458L414.437 398.595L481.981 267.218L427.946 254.082L414.437 267.218Z" fill="#4D8AF0"/>
        <path opacity="0.1" d="M412.555 270.87L410.531 276.783L453.089 270.87L469.714 291.083L480.107 270.87L426.064 257.733L412.555 270.87Z" fill="black"/>
        <path d="M218.706 18.6981C218.706 18.6981 236.016 -3.00779 249.163 11.5994C262.311 26.2066 228.513 28.0288 228.513 28.0288L218.706 18.6981Z" fill="#FDA57D"/>
        <path d="M238.808 240.945L251.865 266.347C255.93 274.253 262.45 280.715 270.501 284.817C278.553 288.919 287.728 290.453 296.726 289.202L454.963 267.247L509.006 332.935L549.532 293.527L462.346 220.857C460.02 218.918 457.302 217.473 454.368 216.614C451.434 215.756 448.348 215.504 445.308 215.873L238.808 240.945Z" fill="#4D8AF0"/>
        <path opacity="0.1" d="M199.102 99.2279C199.102 99.2279 202.662 141.893 189.153 143.357L216.17 156.53C216.17 156.53 214.665 233.891 243.188 261.627C243.188 261.627 295.725 233.891 351.265 235.354C406.806 236.818 337.719 182.802 337.719 182.802L328.598 122.997L336.124 112.02C325.948 109.057 316.839 103.363 309.844 95.5907C302.318 104.717 285.114 117.092 270.19 117.092H263.733C241.487 117.092 217.826 112.701 199.079 101.065L199.102 99.2279Z" fill="black"/>
        <path d="M196.596 95.5761C196.596 95.5761 200.186 138.241 186.639 139.698L213.657 152.87C213.657 152.87 212.152 230.231 240.674 257.968C240.674 257.968 293.212 230.231 348.752 231.695C404.292 233.159 335.205 179.143 335.205 179.143L326.084 119.338L333.61 108.361C323.435 105.398 314.326 99.7035 307.33 91.9316C299.804 101.057 282.6 113.433 267.677 113.433H261.22C238.973 113.433 215.312 107.234 196.566 95.5761H196.596Z" fill="#3AD29F"/>
        <path d="M232.185 83.5449V98.1813C232.186 105.615 235.223 112.743 240.629 117.999L272.719 149.204L283.398 128.428C285.258 124.81 286.227 120.821 286.228 116.777V83.5449H232.185Z" fill="#FDA57D"/>
        <path opacity="0.1" d="M232.599 100.443C232.599 100.984 232.599 101.518 232.652 102.06C240.084 108.506 249.697 112.064 259.655 112.056C269.614 112.048 279.221 108.474 286.642 102.016V85.777H232.599V100.443Z" fill="black"/>
        <path d="M259.203 109.825C281.585 109.825 299.729 92.1808 299.729 70.416C299.729 48.6512 281.585 31.0073 259.203 31.0073C236.821 31.0073 218.676 48.6512 218.676 70.416C218.676 92.1808 236.821 109.825 259.203 109.825Z" fill="#FDA57D"/>
        <path opacity="0.1" d="M232.185 59.2996H299.737C299.737 59.2996 326.754 33.0272 299.737 19.8909C293.87 17.1725 287.725 15.063 281.404 13.5973C240.321 3.46884 201.254 36.5106 206.537 77.4049C207.787 87.0649 211.346 94.9686 218.676 98.7082C247.192 113.286 232.185 59.2996 232.185 59.2996Z" fill="black"/>
        <path d="M232.185 57.4774H299.737C299.737 57.4774 326.754 31.2049 299.737 18.0687C293.87 15.3503 287.725 13.2408 281.404 11.775C240.321 1.64661 201.254 34.6884 206.537 75.5827C207.787 85.2427 211.346 93.1464 218.676 96.886C247.192 111.486 232.185 57.4774 232.185 57.4774Z" fill="#333333"/>
        <path d="M234.142 77.3171C236.216 77.3171 237.897 74.4567 237.897 70.9283C237.897 67.3998 236.216 64.5395 234.142 64.5395C232.068 64.5395 230.387 67.3998 230.387 70.9283C230.387 74.4567 232.068 77.3171 234.142 77.3171Z" fill="#FDA57D"/>
        <path opacity="0.1" d="M213.491 152.168L215.373 146.687L221.002 150.338L213.491 152.168Z" fill="black"/>
        <path opacity="0.1" d="M335.311 179.15C335.311 179.15 314.871 188.664 309.234 197.812L335.311 179.15Z" fill="black"/>
        <path opacity="0.1" d="M326.129 119.309L324.255 124.783L320.5 119.309H326.129Z" fill="black"/>
        <path d="M232.185 57.4774H299.737C299.737 57.4774 326.754 31.2049 299.737 18.0687C293.87 15.3503 287.725 13.2408 281.404 11.775C240.321 1.64661 201.254 34.6884 206.537 75.5827C207.787 85.2427 211.346 93.1464 218.676 96.886C247.192 111.486 232.185 57.4774 232.185 57.4774Z" fill="#333333"/>
        <path opacity="0.1" d="M413.918 205.027C413.918 205.027 427.622 234 409.628 236.496C391.634 238.991 399.844 212.229 399.844 212.229C399.844 212.229 398.046 204.288 393.666 203.842" fill="black"/>
        <path opacity="0.1" d="M430.474 204.325C430.474 204.325 414.181 232.002 431.874 236.013C449.567 240.023 443.832 212.69 443.832 212.69C443.832 212.69 446.346 204.94 450.756 204.866" fill="black"/>
        <path d="M412.33 204.215C412.33 204.215 426.034 233.188 408.04 235.684C390.046 238.179 398.256 211.416 398.256 211.416C398.256 211.416 396.458 203.454 392.093 203.008" fill="#FFD180"/>
        <path d="M431.746 203.103C431.746 203.103 415.423 230.788 433.146 234.769C450.869 238.75 445.104 211.446 445.104 211.446C445.104 211.446 447.618 203.696 452.028 203.622" fill="#FFD180"/>
        <path opacity="0.5" d="M402.576 229.661H402.268V235.318H402.576V229.661Z" fill="#58555D"/>
        <path opacity="0.5" d="M407.558 229.661H407.25V235.318H407.558V229.661Z" fill="#58555D"/>
        <path opacity="0.5" d="M404.857 227.86H404.548V235.771H404.857V227.86Z" fill="#58555D"/>
        <path opacity="0.5" d="M434.937 228.453H434.628V234.11H434.937V228.453Z" fill="#58555D"/>
        <path opacity="0.5" d="M439.919 228.453H439.611V234.11H439.919V228.453Z" fill="#58555D"/>
        <path opacity="0.5" d="M437.217 226.646H436.909V234.557H437.217V226.646Z" fill="#58555D"/>
        <g opacity="0.5">
            <path opacity="0.5" d="M424.834 560.667C443.588 554.551 453.692 534.81 447.403 516.573C441.113 498.337 420.812 488.511 402.058 494.627C383.305 500.743 373.2 520.485 379.49 538.721C385.779 556.958 406.081 566.783 424.834 560.667Z" fill="url(#paint10_linear_1_3)"/>
        </g>
        <path d="M424.107 558.558C441.663 552.833 451.121 534.352 445.234 517.281C439.346 500.209 420.341 491.011 402.786 496.737C385.23 502.462 375.771 520.942 381.659 538.014C387.547 555.085 406.551 564.283 424.107 558.558Z" fill="#F55F44"/>
        <g opacity="0.5">
            <path opacity="0.5" d="M324.218 571.319C319.401 572.893 313.403 571.773 311.168 567.28C309.881 564.682 310.19 561.776 310.491 558.966C310.822 555.885 311.1 553.229 309.317 551.509C308.395 550.747 307.31 550.194 306.141 549.892C304.636 549.401 303.01 548.992 301.46 548.596C298.696 547.979 295.995 547.116 293.392 546.02C288.275 543.686 285.001 539.741 284.64 535.467C284.331 531.808 286.145 528.471 287.876 525.273C289.607 522.075 291.353 518.899 290.525 515.759C289.404 511.522 284.173 509.51 279.567 507.709L278.815 507.431C273.186 505.236 267.15 500.603 268.655 494.661C269.182 492.59 270.529 491.002 271.831 489.538C272.714 488.586 273.472 487.532 274.089 486.399C276.121 482.235 273.336 477.419 272.094 475.538C271.123 474.075 269.972 472.728 268.858 471.389C267.113 469.422 265.568 467.294 264.245 465.037L264.034 464.656C260.979 459.036 260.919 458.802 261.174 452.676V451.944L263.839 452.047V452.779C263.613 458.333 263.613 458.333 266.39 463.441L266.601 463.822C267.842 465.932 269.291 467.919 270.928 469.757C272.079 471.14 273.268 472.575 274.314 474.104C277.543 478.854 278.333 483.735 276.489 487.504C275.769 488.827 274.879 490.057 273.84 491.163C272.681 492.509 271.583 493.783 271.206 495.276C270.032 499.894 276.03 503.567 279.763 505.016L280.478 505.294C285.422 507.197 291.579 509.568 293.039 515.079C294.122 519.17 292.113 522.858 290.164 526.429C288.531 529.43 286.98 532.284 287.229 535.211C287.56 539.141 291.18 542.134 294.453 543.635C296.909 544.664 299.455 545.472 302.062 546.05C303.657 546.452 305.306 546.877 306.916 547.396C308.481 547.814 309.924 548.58 311.13 549.636C313.817 552.226 313.441 555.776 313.08 559.208C312.809 561.769 312.545 564.192 313.509 566.124C315.247 569.622 320.636 570.134 324.383 568.414C327.454 567.009 329.87 564.616 332.428 562.091C333.256 561.272 334.114 560.43 334.987 559.625C339.759 555.234 344.583 553.317 348.947 554.056C350.332 554.336 351.682 554.76 352.974 555.322C353.979 555.751 355.018 556.099 356.082 556.361C358.455 556.772 360.9 556.298 362.929 555.034C364.959 553.77 366.424 551.808 367.032 549.54C367.13 549.109 367.197 548.655 367.273 548.179C367.506 546.657 367.769 544.93 369.019 543.591C370.268 542.251 372.247 541.761 373.655 541.446L388.179 538.182L388.781 540.707L374.257 543.971C372.879 544.279 371.683 544.601 370.998 545.332C370.313 546.064 370.11 547.286 369.922 548.56C369.847 549.057 369.764 549.577 369.651 550.089C368.887 553.027 366.999 555.571 364.373 557.203C361.747 558.835 358.58 559.431 355.518 558.871C354.309 558.578 353.129 558.186 351.988 557.7C350.87 557.211 349.702 556.838 348.503 556.588C344.078 555.856 339.721 558.835 336.839 561.484C336.003 562.252 335.16 563.086 334.348 563.884C331.736 566.46 329.042 569.131 325.542 570.734C325.113 570.954 324.671 571.149 324.218 571.319Z" fill="url(#paint11_linear_1_3)"/>
        </g>
        <path d="M324.579 570.031C319.763 571.605 313.765 570.485 311.529 565.992C310.242 563.394 310.551 560.488 310.852 557.678C311.183 554.597 311.462 551.941 309.678 550.221C308.757 549.458 307.671 548.906 306.502 548.604C304.997 548.113 303.371 547.703 301.821 547.308C299.057 546.691 296.356 545.828 293.753 544.732C288.636 542.398 285.362 538.453 285.001 534.179C284.692 530.52 286.506 527.183 288.237 523.985C289.968 520.787 291.714 517.611 290.886 514.471C289.765 510.234 284.534 508.222 279.929 506.421L279.176 506.143C273.547 503.948 267.511 499.315 269.016 493.373C269.543 491.302 270.89 489.714 272.192 488.25C273.075 487.298 273.833 486.244 274.45 485.111C276.482 480.947 273.697 476.131 272.456 474.25C271.485 472.787 270.333 471.44 269.219 470.101C267.474 468.134 265.929 466.006 264.606 463.749L264.395 463.368C261.34 457.748 261.28 457.514 261.536 451.388V450.656L264.2 450.759V451.491C263.974 457.045 263.974 457.045 266.751 462.153L266.962 462.534C268.203 464.644 269.653 466.631 271.289 468.469C272.441 469.852 273.63 471.287 274.676 472.816C277.904 477.566 278.694 482.447 276.851 486.216C276.13 487.539 275.24 488.769 274.202 489.875C273.043 491.221 271.944 492.495 271.568 493.988C270.394 498.605 276.392 502.279 280.124 503.728L280.839 504.006C285.784 505.909 291.94 508.28 293.4 513.791C294.483 517.882 292.474 521.57 290.525 525.141C288.892 528.142 287.342 530.996 287.59 533.923C287.921 537.853 291.541 540.846 294.815 542.347C297.27 543.376 299.817 544.184 302.423 544.762C304.019 545.164 305.667 545.588 307.277 546.108C308.842 546.526 310.285 547.292 311.492 548.347C314.178 550.938 313.802 554.487 313.441 557.92C313.17 560.481 312.907 562.903 313.87 564.835C315.608 568.334 320.997 568.846 324.745 567.126C327.815 565.721 330.231 563.328 332.79 560.803C333.618 559.983 334.475 559.142 335.348 558.337C340.12 553.946 344.944 552.029 349.309 552.768C350.694 553.048 352.044 553.472 353.335 554.034C354.34 554.463 355.379 554.81 356.443 555.073C358.816 555.484 361.261 555.01 363.29 553.746C365.32 552.482 366.785 550.52 367.393 548.252C367.491 547.821 367.559 547.367 367.634 546.891C367.867 545.369 368.131 543.642 369.38 542.303C370.629 540.963 372.609 540.473 374.016 540.158L388.541 536.894L389.143 539.419L374.618 542.683C373.241 542.991 372.044 543.313 371.359 544.044C370.674 544.776 370.471 545.998 370.283 547.272C370.208 547.769 370.125 548.289 370.012 548.801C369.248 551.739 367.361 554.283 364.735 555.915C362.108 557.547 358.941 558.143 355.879 557.583C354.671 557.29 353.49 556.898 352.349 556.412C351.231 555.923 350.063 555.55 348.865 555.3C344.44 554.568 340.082 557.546 337.2 560.196C336.364 560.964 335.522 561.798 334.709 562.596C332.097 565.172 329.403 567.843 325.904 569.446C325.474 569.666 325.032 569.861 324.579 570.031Z" fill="#F55F44"/>
        <path opacity="0.2" d="M411.494 504.423C411.494 504.423 430.045 501.694 439.129 526.868" stroke="black" stroke-miterlimit="10"/>
        <path opacity="0.2" d="M390.971 544.527C390.971 544.527 377.199 525.573 401.741 504.672" stroke="black" stroke-miterlimit="10"/>
        <path opacity="0.2" d="M396.608 537.604C396.608 537.604 389.963 527.659 396.932 518.745" stroke="black" stroke-miterlimit="10"/>
        <path opacity="0.2" d="M408.506 514.969C408.506 514.969 417.304 518.35 418.538 533.579" stroke="black" stroke-miterlimit="10"/>
        <path opacity="0.2" d="M418.832 497.142C418.832 497.142 432.574 499.696 442.162 518.072" stroke="black" stroke-miterlimit="10"/>
        <path opacity="0.2" d="M401.124 502.916C401.124 502.916 407.618 498.452 413.647 500.786" stroke="black" stroke-miterlimit="10"/>
        <path opacity="0.2" d="M406.031 545.062C406.031 545.062 414.715 550.433 437.097 534.933" stroke="black" stroke-miterlimit="10"/>
        <path opacity="0.2" d="M404.488 555.746C404.488 555.746 409.921 561.008 421.233 556.537" stroke="black" stroke-miterlimit="10"/>
        <path opacity="0.2" d="M388.375 509.034C386.042 512.4 384.474 516.211 383.776 520.212C383.078 524.214 383.265 528.314 384.326 532.24" stroke="black" stroke-miterlimit="10"/>
        <path opacity="0.2" d="M395.668 542.991C395.668 542.991 394.953 547.916 400.62 550.36" stroke="black" stroke-miterlimit="10"/>
        <path opacity="0.2" d="M440.717 537.29C440.717 537.29 440.371 546.803 434.952 547.374" stroke="black" stroke-miterlimit="10"/>
        <path opacity="0.2" d="M410.982 551.282C414.253 551.706 417.579 551.4 420.709 550.385C423.839 549.37 426.69 547.675 429.044 545.427" stroke="black" stroke-miterlimit="10"/>
        <path opacity="0.2" d="M419.351 517.296C419.351 517.296 424.055 520.45 423.588 526.078" stroke="black" stroke-miterlimit="10"/>
        <path opacity="0.2" d="M401.41 523.539C401.41 523.539 400.1 530.22 403.479 534.194" stroke="black" stroke-miterlimit="10"/>
        <path opacity="0.2" d="M405.383 522.243C405.383 522.243 410.215 528.098 408.898 532.43" stroke="black" stroke-miterlimit="10"/>
    </g>
    <defs>
        <linearGradient id="paint0_linear_1_3" x1="365" y1="451" x2="365" y2="66.2519" gradientUnits="userSpaceOnUse">
            <stop stop-color="#808080" stop-opacity="0.25"/>
            <stop offset="0.54" stop-color="#808080" stop-opacity="0.12"/>
            <stop offset="1" stop-color="#808080" stop-opacity="0.1"/>
        </linearGradient>
        <linearGradient id="paint1_linear_1_3" x1="57223.3" y1="-325133" x2="39768.8" y2="-350654" gradientUnits="userSpaceOnUse">
            <stop stop-color="#808080" stop-opacity="0.25"/>
            <stop offset="0.54" stop-color="#808080" stop-opacity="0.12"/>
            <stop offset="1" stop-color="#808080" stop-opacity="0.1"/>
        </linearGradient>
        <linearGradient id="paint2_linear_1_3" x1="8375.29" y1="-47179.7" x2="8063.78" y2="-47635.2" gradientUnits="userSpaceOnUse">
            <stop stop-color="#808080" stop-opacity="0.25"/>
            <stop offset="0.54" stop-color="#808080" stop-opacity="0.12"/>
            <stop offset="1" stop-color="#808080" stop-opacity="0.1"/>
        </linearGradient>
        <linearGradient id="paint3_linear_1_3" x1="9777.76" y1="-46433.4" x2="9466.13" y2="-46889" gradientUnits="userSpaceOnUse">
            <stop stop-color="#808080" stop-opacity="0.25"/>
            <stop offset="0.54" stop-color="#808080" stop-opacity="0.12"/>
            <stop offset="1" stop-color="#808080" stop-opacity="0.1"/>
        </linearGradient>
        <linearGradient id="paint4_linear_1_3" x1="7644.5" y1="-45609.2" x2="7332.87" y2="-46064.9" gradientUnits="userSpaceOnUse">
            <stop stop-color="#808080" stop-opacity="0.25"/>
            <stop offset="0.54" stop-color="#808080" stop-opacity="0.12"/>
            <stop offset="1" stop-color="#808080" stop-opacity="0.1"/>
        </linearGradient>
        <linearGradient id="paint5_linear_1_3" x1="8968.74" y1="-44807.3" x2="8657.11" y2="-45262.9" gradientUnits="userSpaceOnUse">
            <stop stop-color="#808080" stop-opacity="0.25"/>
            <stop offset="0.54" stop-color="#808080" stop-opacity="0.12"/>
            <stop offset="1" stop-color="#808080" stop-opacity="0.1"/>
        </linearGradient>
        <linearGradient id="paint6_linear_1_3" x1="41844.8" y1="34188.1" x2="41844.8" y2="20403.6" gradientUnits="userSpaceOnUse">
            <stop stop-color="#808080" stop-opacity="0.25"/>
            <stop offset="0.54" stop-color="#808080" stop-opacity="0.12"/>
            <stop offset="1" stop-color="#808080" stop-opacity="0.1"/>
        </linearGradient>
        <linearGradient id="paint7_linear_1_3" x1="80030.7" y1="72832.5" x2="80030.7" y2="32244.5" gradientUnits="userSpaceOnUse">
            <stop stop-color="#808080" stop-opacity="0.25"/>
            <stop offset="0.54" stop-color="#808080" stop-opacity="0.12"/>
            <stop offset="1" stop-color="#808080" stop-opacity="0.1"/>
        </linearGradient>
        <linearGradient id="paint8_linear_1_3" x1="417.959" y1="180.27" x2="417.959" y2="172.864" gradientUnits="userSpaceOnUse">
            <stop stop-color="white"/>
            <stop offset="1"/>
        </linearGradient>
        <linearGradient id="paint9_linear_1_3" x1="282568" y1="312247" x2="282568" y2="27045.4" gradientUnits="userSpaceOnUse">
            <stop stop-color="#808080" stop-opacity="0.25"/>
            <stop offset="0.54" stop-color="#808080" stop-opacity="0.12"/>
            <stop offset="1" stop-color="#808080" stop-opacity="0.1"/>
        </linearGradient>
        <linearGradient id="paint10_linear_1_3" x1="73313.6" y1="-46623.3" x2="71252.3" y2="-52943.7" gradientUnits="userSpaceOnUse">
            <stop stop-color="#808080" stop-opacity="0.25"/>
            <stop offset="0.54" stop-color="#808080" stop-opacity="0.12"/>
            <stop offset="1" stop-color="#808080" stop-opacity="0.1"/>
        </linearGradient>
        <linearGradient id="paint11_linear_1_3" x1="117207" y1="-82144.7" x2="110441" y2="-102892" gradientUnits="userSpaceOnUse">
            <stop stop-color="#808080" stop-opacity="0.25"/>
            <stop offset="0.54" stop-color="#808080" stop-opacity="0.12"/>
            <stop offset="1" stop-color="#808080" stop-opacity="0.1"/>
        </linearGradient>
        <clipPath id="clip0_1_3">
            <rect width="730" height="572" fill="white"/>
        </clipPath>
    </defs>
</svg>
